PathFileType	4	(X/Y/Z)	0_coords_data.trc
DataRate	CameraRate	NumFrames	NumMarkers	Units	OrigDataRate	OrigDataStartFrame	OrigNumFrames
30.0	30.0	6	21	m	30.0	11	62
Frame#	Time	THUMB_TIP	THUMB_IP	THUMB_MCP	THUMB_CMC	INDEX_TIP	INDEX_DIP	INDEX_PIP	INDEX_MCP	MIDDLE_TIP	MIDDLE_DIP	MIDDLE_PIP	MIDDLE_MCP	RING_TIP	RING_DIP	RING_PIP	RING_MCP	PINKY_TIP	PINKY_DIP	PINKY_PIP	PINKY_MCP	WRIST
X1	Y1	Z1	X2	Y2	Z2	X3	Y3	Z3	X4	Y4	Z4	X5	Y5	Z5	X6	Y6	Z6	X7	Y7	Z7	X8	Y8	Z8	X9	Y9	Z9	X10	Y10	Z10	X11	Y11	Z11	X12	Y12	Z12	X13	Y13	Z13	X14	Y14	Z14	X15	Y15	Z15	X16	Y16	Z16	X17	Y17	Z17	X18	Y18	Z18	X19	Y19	Z19	X20	Y20	Z20	X21	Y21	Z21
10	0.3333333333333333	-0.010680700302124023	-0.11868900299072266	0.9921710205078125	-0.008531450271606445	-0.09191079711914063	1.0045999755859376	-0.016099700927734373	-0.07538809967041016	1.03125	-0.01709029960632324	-0.039020198822021485	1.04747998046875	-0.010120200157165528	-0.050162899017333985	1.0248499755859375	0.0032430000305175783	-0.05286819839477539	1.0098599853515624	0.004137290000915527	-0.05937699890136719	0.98510302734375	-0.03961579895019531	-0.058775501251220705	0.9902440185546875	-0.003991379976272583	-0.036165901184082035	1.023280029296875	0.005291910171508789	-0.034400299072265626	1.013219970703125	0.010225899696350097	-0.03614749908447266	0.9833839721679688	-0.03770309829711914	-0.03352159881591797	0.9824940185546875	-0.006597929954528808	-0.019534099578857423	1.02627001953125	0.00504856014251709	-0.01652169990539551	1.0194400024414063	0.017706600189208985	-0.014711899757385254	0.9937160034179687	-0.028498199462890624	-0.009367589950561523	0.9837139892578125	-0.010220899581909179	-0.0012817599773406981	1.026239990234375	0.0037101399898529053	0.000105656996369361	1.01822998046875	0.011998100280761719	0.005782470226287841	0.9983720092773437	-0.022361799240112303	0.014263600349426269	0.9889310302734375	-0.04061589813232422	-0.008807609558105469	1.0662900390625
11	0.36666666666666664	-0.01097249984741211	-0.11873500061035157	0.9918489990234375	-0.00885159969329834	-0.09194210052490234	1.0044000244140625	-0.01659320068359375	-0.07530449676513672	1.0313199462890625	-0.017278900146484377	-0.03906940078735351	1.0473399658203124	-0.010491900444030762	-0.050284198760986325	1.0246199951171875	0.003021199941635132	-0.05283200073242188	1.0097100219726562	0.003848129987716675	-0.05939950180053711	0.98497900390625	-0.03996490097045898	-0.05890700149536133	0.990177001953125	-0.004105309963226319	-0.0361869010925293	1.022760009765625	0.0048958401679992675	-0.03452790069580078	1.012760009765625	0.009815190315246582	-0.036222400665283205	0.9831129760742188	-0.03814680099487305	-0.03358259963989258	0.9823829956054687	-0.006490180015563965	-0.01959480094909668	1.026219970703125	0.004896689891815185	-0.016594100952148437	1.0191300048828125	0.01736910057067871	-0.014785799980163574	0.9933590087890625	-0.028888999938964845	-0.009477069854736328	0.9835369873046875	-0.010558799743652343	-0.001453189969062805	1.0259200439453124	0.003201560020446777	4.0664501488208e-05	1.01802001953125	0.01180869960784912	0.005752260208129883	0.99810302734375	-0.02256170082092285	0.014121399879455567	0.9887830200195312	-0.04077669906616211	-0.008899669647216796	1.0663900146484375
12	0.4	-0.011456500053405762	-0.11866500091552734	0.991426025390625	-0.009271590232849122	-0.09190670013427735	1.0040499877929687	-0.01675309944152832	-0.075368896484375	1.0310999755859376	-0.017447099685668946	-0.039053798675537106	1.0470999755859376	-0.010662099838256837	-0.05028689956665039	1.024489990234375	0.002770859956741333	-0.052847801208496095	1.0096500244140625	0.0035980300903320312	-0.059452701568603515	0.9846580200195313	-0.04019570159912109	-0.05886840057373047	0.9899310302734375	-0.004269899845123291	-0.03618069839477539	1.0226300048828125	0.0049161801338195804	-0.03444599914550781	1.0126500244140626	0.009615460395812988	-0.03621839904785156	0.9830650024414063	-0.03831679916381836	-0.0335968017578125	0.9821279907226562	-0.007338580131530762	-0.019576000213623046	1.0258599853515624	0.004709569931030273	-0.01662579917907715	1.018989990234375	0.017173900604248046	-0.014793299674987792	0.9932139892578125	-0.029083599090576173	-0.009461589813232422	0.9833619995117188	-0.010715399742126465	-0.001394309997558593	1.025780029296875	0.003189820051193237	3.6648299545049e-05	1.0178800048828125	0.011577799797058105	0.005724500179290772	0.997822998046875	-0.022849300384521484	0.014180899620056153	0.9887379760742188	-0.04114039993286133	-0.008797809600830079	1.066050048828125
13	0.43333333333333335	-0.011519700050354005	-0.11855899810791015	0.9911409912109375	-0.00937201976776123	-0.09185859680175781	1.0038499755859376	-0.016825300216674804	-0.07538990020751953	1.0309100341796875	-0.01755620002746582	-0.0391702995300293	1.04693994140625	-0.010941900253295899	-0.050508201599121096	1.0240699462890626	0.002657510042190551	-0.05285599899291992	1.0093900146484376	0.0032650899887084962	-0.059484100341796874	0.9841199951171875	-0.04035430145263672	-0.05892020034790039	0.98972900390625	-0.004573460102081299	-0.0361969985961914	1.0226900024414063	0.004686520099639892	-0.034458499908447265	1.0125700073242188	0.009474260330200195	-0.03620920181274414	0.982916015625	-0.03855329895019531	-0.03361380004882813	0.9819140014648438	-0.007425650119781494	-0.019546300888061523	1.0259599609375	0.004546850204467773	-0.016666799545288085	1.0187100219726561	0.016836599349975587	-0.01477810001373291	0.9930360107421875	-0.029326799392700196	-0.009454540252685547	0.983177978515625	-0.010933899879455566	-0.0013969800472259522	1.0255999755859375	0.003152169942855835	-4.3053101748228e-05	1.017489990234375	0.011250399589538574	0.005633969783782959	0.9975830078125	-0.02298769950866699	0.014137700080871582	0.9885020141601563	-0.041261798858642576	-0.00885696029663086	1.065989990234375
14	0.4666666666666667	-0.011783599853515625	-0.11866699981689453	0.9911320190429688	-0.00969400978088379	-0.091956298828125	1.004	-0.017199399948120118	-0.0754979019165039	1.03081005859375	-0.01782029914855957	-0.03923270034790039	1.0468499755859375	-0.011024999618530273	-0.05047700119018555	1.0237000122070312	0.0022065598964691163	-0.053053199768066404	1.00927001953125	0.0032267498970031737	-0.05962300109863281	0.9842420043945312	-0.040744701385498044	-0.05898260116577148	0.9899000244140626	-0.004830830097198487	-0.03637820053100586	1.0228200073242188	0.004426080226898194	-0.03467169952392578	1.0123099975585939	0.009134900093078614	-0.03644400024414062	0.9826900024414063	-0.03883430099487305	-0.03368949890136719	0.9820029907226563	-0.0071740798950195315	-0.01974530029296875	1.02572998046875	0.004238140106201172	-0.01678529930114746	1.0185700073242188	0.016688699722290038	-0.014989800453186035	0.992822998046875	-0.0295447998046875	-0.009577239990234375	0.98302001953125	-0.011116499900817872	-0.001773640036582946	1.0253399658203124	0.0026958398818969723	-0.00018087999522686002	1.0174199829101562	0.011100700378417969	0.005519000053405762	0.9974130249023437	-0.023271900177001953	0.014042499542236329	0.9884329833984375	-0.0414723014831543	-0.008858489990234374	1.06581005859375
15	0.5	-0.012542900085449218	-0.11894999694824218	0.9910419921875	-0.010241299629211427	-0.09217649841308594	1.003780029296875	-0.01754490089416504	-0.07561080169677735	1.03075	-0.018067499160766602	-0.039383899688720705	1.046699951171875	-0.011230600357055665	-0.05065589904785156	1.0239600219726563	0.0021241400241851804	-0.05318370056152344	1.0090999755859376	0.002854330062866211	-0.0598317985534668	0.9841259765625	-0.04089310073852539	-0.05910649871826172	0.9896690063476562	-0.004928540229797363	-0.03649900054931641	1.0224299926757812	0.004271339893341064	-0.034847900390625	1.0125599975585937	0.00900648021697998	-0.03656370162963867	0.9825999755859375	-0.03905459976196289	-0.033808700561523436	0.981843994140625	-0.007686639785766601	-0.01999329948425293	1.0248800048828124	0.004030889987945556	-0.017023500442504884	1.0182999877929688	0.01658580017089844	-0.01520870018005371	0.9926859741210937	-0.029715999603271485	-0.009654760360717773	0.9829219970703125	-0.011288900375366211	-0.002153249979019165	1.0253199462890625	0.002644049882888794	-0.00045149698853492705	1.0173400268554686	0.010979299545288085	0.005292630195617676	0.9974390258789062	-0.023229999542236326	0.013923600196838378	0.988218017578125	-0.041501300811767575	-0.009038760185241699	1.06581005859375
